P3
5 4
255
34
56
46
36
74
66
79
90
78
95
100
65
38
54
58
35
59
65
152
122
53
231
127
12
135
94
49
39
59
65
58
81
79
115
69
19
89
49
22
64
69
66
53
67
78
43
73
77
64
101
125
61
72
74
55
63
56
36
61
63
